<svg xmlns="http://www.w3.org/2000/svg" xmlns:svgjs="http://svgjs.com/svgjs" xmlns:xlink="http://www.w3.org/1999/xlink" width="288" height="288"><svg xmlns="http://www.w3.org/2000/svg" width="288" height="288" viewBox="0 0 210 210"><g fill="#f5f5f5" class="color000 svgShape" transform="matrix(1.02 0 0 1.02 104.77 104.77)"><line x1="-100" x2="100" stroke="#f5f5f5" class="colorStroke000 svgStroke" transform="translate(-2.75 2.75)" vector-effect="non-scaling-stroke"/><path fill="#ea6e00" fill-opacity=".5" stroke="#fc861d" stroke-opacity=".7" d="M 110 76 L 176 76 L 176 110 L 110 110 z" class="colorea6e00 svgShape colorStrokefc861d svgStroke" transform="matrix(.99 0 0 1.93 -111.07 -144)" vector-effect="non-scaling-stroke"/><path fill="#0653bc" fill-opacity=".5" stroke="#00238b" stroke-opacity=".7" d="M 43 110 L 110 110 L 110 48 z" class="color0653bc svgShape colorStroke00238b svgStroke" transform="matrix(-.97 0 0 1.07 104.455 -115.03)" vector-effect="non-scaling-stroke"/><path fill="#007430" fill-opacity=".5" stroke="#006423" stroke-opacity=".7" d="M 43 110 C 42.99797061922083 127.67893510720792 50.088625603302674 144.61963722647454 62.683156281799455 157.026189835143 C 75.27768696029624 169.43274244381146 92.32309415709406 176.26786277138154 110.00000000000001 176 L 110 110 Z" class="color007430 svgShape colorStroke006423 svgStroke" transform="matrix(1 0 0 -1 -112.75 112.25)" vector-effect="non-scaling-stroke"/><path d="M 210 110 L 200 105 L 200 115 z" class="color000 svgShape" transform="translate(-107.25 -107.25)" vector-effect="non-scaling-stroke"/><line y1="-100" y2="100" stroke="#f5f5f5" class="colorStroke000 svgStroke" transform="translate(-2.75 2.75)" vector-effect="non-scaling-stroke"/><path d="M 0 -5 L -5 5 L 5 5 z" class="color000 svgShape" transform="translate(-2.75 -97.75)" vector-effect="non-scaling-stroke"/><line y1="-5" y2="5" stroke="#f5f5f5" class="colorStroke000 svgStroke" transform="translate(-69.75 2.75)" vector-effect="non-scaling-stroke"/><text font-family="Times New Roman" font-size="14" style="white-space:pre" transform="translate(-69.75 13.18)" svgjs:data="{&quot;leading&quot;:&quot;1.3&quot;}"><tspan x="-8.95" y="4.4">-R</tspan></text><line y1="-5" y2="5" stroke="#f5f5f5" class="colorStroke000 svgStroke" transform="translate(-36.75 2.75)" vector-effect="non-scaling-stroke"/><text font-family="Times New Roman" font-size="14" style="white-space:pre" transform="translate(-36.75 13.18)" svgjs:data="{&quot;leading&quot;:&quot;1.3&quot;}"><tspan x="-14.39" y="4.4">-R/2</tspan></text><line y1="-5" y2="5" stroke="#f5f5f5" class="colorStroke000 svgStroke" transform="translate(30.25 2.75)" vector-effect="non-scaling-stroke"/><text font-family="Times New Roman" font-size="14" style="white-space:pre" transform="translate(30.25 -7.39)" svgjs:data="{&quot;leading&quot;:&quot;1.3&quot;}"><tspan x="-10.46" y="4.4">R/2</tspan></text><line y1="-5" y2="5" stroke="#f5f5f5" class="colorStroke000 svgStroke" transform="translate(63.25 2.75)" vector-effect="non-scaling-stroke"/><text font-family="Times New Roman" font-size="14" style="white-space:pre" transform="translate(66.24 -7.39)" svgjs:data="{&quot;leading&quot;:&quot;1.3&quot;}"><tspan x="-6.62" y="4.4">R</tspan></text><line x1="-5" x2="5" stroke="#f5f5f5" class="colorStroke000 svgStroke" transform="translate(-2.75 68.75)" vector-effect="non-scaling-stroke"/><text font-family="Times New Roman" font-size="14" style="white-space:pre" transform="translate(-12.69 68.74)" svgjs:data="{&quot;leading&quot;:&quot;1.3&quot;}"><tspan x="-8.95" y="4.4">-R</tspan></text><line x1="-5" x2="5" stroke="#f5f5f5" class="colorStroke000 svgStroke" transform="translate(-2.75 35.75)" vector-effect="non-scaling-stroke"/><text font-family="Times New Roman" font-size="14" style="white-space:pre" transform="translate(-18.14 35.75)" svgjs:data="{&quot;leading&quot;:&quot;1.3&quot;}"><tspan x="-14.39" y="4.4">-R/2</tspan></text><line x1="-5" x2="5" stroke="#f5f5f5" class="colorStroke000 svgStroke" transform="translate(-2.75 -31.25)" vector-effect="non-scaling-stroke"/><text font-family="Times New Roman" font-size="14" style="white-space:pre" transform="translate(15.31 -31.25)" svgjs:data="{&quot;leading&quot;:&quot;1.3&quot;}"><tspan x="-12.06" y="4.4">R/2</tspan></text><line x1="-5" x2="5" stroke="#f5f5f5" class="colorStroke000 svgStroke" transform="translate(-2.75 -64.25)" vector-effect="non-scaling-stroke"/><text font-family="Times New Roman" font-size="14" style="white-space:pre" transform="translate(9.87 -64.75)" svgjs:data="{&quot;leading&quot;:&quot;1.3&quot;}"><tspan x="-6.62" y="4.4">R</tspan></text></g></svg></svg>